<svg xmlns="http://www.w3.org/2000/svg" xmlns:xlink="http://www.w3.org/1999/xlink" width="32" height="32" viewBox="0 0 32 32">
    <defs>
        <path id="a" d="M15.962 15.98H0V.05h15.962v15.93z"/>
    </defs>
    <g fill="none" fill-rule="evenodd" transform="translate(1 1)">
        <circle cx="15" cy="15" r="15" stroke="#000"/>
        <path fill="#020202" d="M15 18.347c.2 0 .365.163.365.363v1.472l.31-.037a5.199 5.199 0 0 0 4.475-4.45l.036-.31h-1.479a.365.365 0 0 1-.365-.363c0-.2.164-.363.365-.363h1.48l-.037-.309c-.31-2.325-2.155-4.142-4.475-4.45l-.31-.055v1.471a.365.365 0 0 1-.731 0V9.845l-.31.036a5.198 5.198 0 0 0-4.476 4.451l-.054.327h1.48c.2 0 .364.164.364.363 0 .2-.164.364-.365.364h-1.48l.037.309c.31 2.325 2.155 4.142 4.475 4.45l.31.037V18.71a.395.395 0 0 1 .384-.363m0 4.45a.365.365 0 0 1-.365-.363v-1.49l-.238-.017c-2.776-.291-5.022-2.507-5.296-5.269l-.055-.272h-1.48a.365.365 0 0 1-.365-.364c0-.2.164-.363.365-.363h1.498l.018-.236c.293-2.761 2.52-4.996 5.297-5.268l.238-.019V7.63a.365.365 0 0 1 .73 0v1.49l.238.017c2.776.291 5.023 2.507 5.297 5.269l.018.236h1.498c.2 0 .365.163.365.363 0 .2-.165.364-.365.364h-1.498l-.018.236c-.293 2.761-2.521 4.996-5.297 5.268l-.22.073v1.49c0 .2-.164.363-.365.363"/>
        <g transform="translate(7 7.017)">
            <mask id="b" fill="#fff">
                <use xlink:href="#a"/>
            </mask>
            <path fill="#000" d="M3.019 8.568l.01.087c.296 2.219 2.066 3.979 4.303 4.277l.084.01v-1.266A.596.596 0 0 1 8 11.13c.312 0 .566.253.566.563v1.248l.087-.01a5.005 5.005 0 0 0 4.3-4.28l.01-.084h-1.255a.564.564 0 0 1-.565-.562c0-.31.253-.562.565-.562h1.255l-.01-.087c-.297-2.22-2.067-3.98-4.303-4.277l-.084-.015V4.3a.564.564 0 0 1-1.131 0V3.052l-.087.01a5.005 5.005 0 0 0-4.3 4.28l-.017.102h1.243c.312 0 .565.252.565.562 0 .31-.253.562-.565.562H3.02zm5.146 4.82v-1.694a.165.165 0 0 0-.166-.165c-.09 0-.17.078-.183.175v1.685l-.534-.063c-2.419-.322-4.33-2.222-4.65-4.622l-.063-.534h1.704a.165.165 0 0 0 .165-.164.165.165 0 0 0-.165-.165H2.558l.093-.558c.323-2.396 2.233-4.297 4.646-4.616l.537-.062V4.3a.165.165 0 0 0 .33 0V2.59l.542.095c2.413.323 4.322 2.223 4.642 4.621l.063.534h-1.704a.165.165 0 0 0-.165.165c0 .09.074.164.165.164h1.704l-.062.531A5.406 5.406 0 0 1 8.7 13.326l-.536.063zm-7.6-5.547a.165.165 0 0 0-.165.165c0 .09.074.164.165.164H2.21l.09.452c.264 2.667 2.417 4.807 5.118 5.09l.417.032v1.674a.165.165 0 0 0 .33 0v-1.633l.378-.125.022-.002c2.681-.264 4.833-2.405 5.118-5.092l.032-.414h1.683a.165.165 0 0 0 .165-.164.165.165 0 0 0-.165-.165h-1.683l-.033-.42c-.264-2.662-2.417-4.803-5.118-5.085l-.417-.032V.612a.165.165 0 0 0-.33 0v1.692l-.422.032C4.717 2.6 2.564 4.74 2.28 7.427l-.032.414H.565zM8 15.981a.564.564 0 0 1-.565-.563v-1.306l-.053-.004c-2.891-.302-5.192-2.588-5.48-5.437l-.02-.103H.565A.564.564 0 0 1 0 8.006c0-.31.254-.562.565-.562h1.313l.004-.053c.305-2.88 2.608-5.17 5.477-5.45l.057-.005V.612a.564.564 0 0 1 1.13 0v1.305l.053.004c2.895.303 5.198 2.594 5.48 5.448l.005.056h1.313c.311 0 .565.253.565.563 0 .31-.254.562-.565.562h-1.313l-.004.052c-.304 2.872-2.596 5.158-5.454 5.45l-.061.02v1.346c0 .31-.254.562-.566.562z" mask="url(#b)"/>
        </g>
    </g>
</svg>
